<?xml version="1.0" encoding="UTF-8" standalone="no"?>
<!DOCTYPE svg PUBLIC "-//W3C//DTD SVG 1.1//EN" "http://www.w3.org/Graphics/SVG/1.1/DTD/svg11.dtd">
<!-- Created with Vectornator (http://vectornator.io/) -->
<svg height="100%" stroke-miterlimit="10" style="fill-rule:nonzero;clip-rule:evenodd;stroke-linecap:round;stroke-linejoin:round;" version="1.1" viewBox="0 0 709.923 386.046" width="100%" xml:space="preserve" xmlns="http://www.w3.org/2000/svg" xmlns:vectornator="http://vectornator.io" xmlns:xlink="http://www.w3.org/1999/xlink">
<defs/>
<g id="Layer-1" vectornator:layerName="Layer 1">
<path d="M400.771 169.47L406.471 169.47C407.171 169.47 407.871 169.57 408.571 169.77C409.371 170.07 410.171 170.47 410.771 171.07C411.771 172.07 412.371 173.47 412.471 174.87C412.471 174.97 412.471 175.07 412.471 175.17C412.471 175.57 412.471 175.87 412.471 176.27C412.471 177.87 412.371 180.67 412.271 184.67C412.271 185.57 412.171 186.47 412.171 187.37C412.071 189.17 412.071 191.07 412.071 192.87C411.971 198.77 411.871 205.97 411.871 214.47C411.871 223.37 412.071 232.27 412.371 241.17L433.571 240.97C434.971 240.97 436.371 241.47 437.371 242.57L437.471 242.67C438.371 243.67 438.971 244.87 439.071 246.17C439.071 246.37 439.071 246.67 439.071 246.87L439.071 250.97C439.071 251.77 438.871 252.67 438.571 253.47C438.271 254.17 437.871 254.77 437.271 255.27C436.171 256.37 434.671 257.07 433.071 257.17C432.971 257.17 432.971 257.17 432.871 257.17C427.071 257.47 421.271 257.67 415.571 257.67C410.671 257.67 405.771 257.67 400.871 257.57C399.971 257.57 399.071 257.37 398.271 256.97C397.671 256.67 397.071 256.27 396.571 255.77C395.371 254.57 394.771 252.97 394.671 251.37L394.671 251.37C394.171 240.47 393.871 229.47 393.771 218.57C393.771 217.87 393.771 217.17 393.771 216.47C393.771 208.77 393.871 199.97 394.171 189.97C394.271 185.17 394.471 180.47 394.671 175.67C394.671 173.97 395.371 172.47 396.471 171.27C397.571 170.07 399.071 169.47 400.671 169.47C400.671 169.47 400.671 169.47 400.771 169.47Z" fill="#ff81a3" fill-rule="evenodd" opacity="1" stroke="none"/>
<path d="M456.171 257.67L450.371 257.67C449.471 257.67 448.671 257.47 447.871 257.17C447.171 256.87 446.571 256.47 446.071 255.87C444.871 254.67 444.271 253.07 444.171 251.47L444.171 251.47C443.971 245.07 443.771 238.67 443.671 232.27C443.571 228.67 443.571 225.07 443.571 221.47C443.571 216.97 443.571 212.37 443.671 207.87C443.771 203.67 443.871 199.47 444.071 195.17C444.071 194.27 444.271 193.37 444.671 192.57C444.971 191.87 445.371 191.27 445.871 190.77C447.071 189.57 448.471 188.97 450.171 188.97L455.971 188.97C456.771 188.97 457.571 189.07 458.371 189.37C459.071 189.67 459.771 190.07 460.271 190.67C461.371 191.77 461.971 193.17 461.971 194.77L461.971 194.87C461.971 194.97 461.971 194.97 461.971 195.07C461.971 195.67 461.871 197.37 461.671 200.37C461.671 200.87 461.571 201.47 461.571 201.97C461.471 203.27 461.471 204.57 461.471 205.87C461.371 210.17 461.271 215.67 461.271 222.57C461.271 222.67 461.271 222.77 461.271 222.77C461.271 232.37 461.471 241.87 461.971 251.47L461.971 251.77C461.971 253.27 461.371 254.77 460.271 255.87C460.271 255.87 460.271 255.87 460.171 255.97C459.371 257.07 457.871 257.67 456.171 257.67C456.271 257.67 456.171 257.67 456.171 257.67ZM457.371 186.37L450.771 186.37C449.071 186.37 447.571 185.77 446.471 184.57C445.371 183.47 444.671 181.97 444.671 180.37L444.671 180.27L444.771 175.67C444.771 173.97 445.471 172.47 446.571 171.27C447.671 170.07 449.171 169.47 450.771 169.47L450.871 169.47L457.371 169.47C458.371 169.47 459.371 169.67 460.271 170.17C460.771 170.47 461.371 170.87 461.771 171.27C462.471 171.97 463.071 172.77 463.271 173.77C463.471 174.37 463.571 174.97 463.571 175.57L463.471 180.17C463.471 181.87 462.771 183.37 461.671 184.57C460.571 185.77 459.071 186.37 457.471 186.37C457.471 186.37 457.471 186.37 457.371 186.37Z" fill="#097bb8" fill-rule="evenodd" opacity="1" stroke="none"/>
<path d="M478.871 202.37L474.371 202.47C472.871 202.47 471.371 201.87 470.371 200.87L470.271 200.77C469.171 199.57 468.571 198.17 468.571 196.47L468.571 193.17C468.571 192.37 468.771 191.47 469.071 190.67C469.371 189.97 469.771 189.37 470.371 188.87C471.471 187.77 472.871 187.17 474.371 187.07C474.571 187.07 474.671 187.07 474.871 187.07L479.271 186.87L479.671 175.97C479.771 174.27 480.371 172.77 481.571 171.57C482.671 170.37 484.171 169.77 485.771 169.77L485.871 169.77L491.571 169.77C492.371 169.77 493.171 169.87 493.871 170.17C494.671 170.47 495.271 170.87 495.871 171.47C496.371 171.97 496.871 172.57 497.171 173.27C497.471 173.97 497.671 174.67 497.571 175.47C497.571 177.07 497.471 179.97 497.371 183.97C497.371 184.87 497.271 185.87 497.271 186.77C500.771 186.77 504.371 186.97 507.871 187.17C508.771 187.17 509.671 187.37 510.471 187.77C511.171 188.07 511.771 188.47 512.271 188.97C513.471 190.17 514.071 191.57 514.071 193.27L514.071 196.57C514.071 197.37 513.971 198.17 513.671 198.87C513.371 199.67 512.971 200.27 512.371 200.87C511.871 201.37 511.271 201.87 510.571 202.17C509.871 202.47 509.171 202.67 508.371 202.57L496.771 202.37C496.671 206.17 496.671 209.97 496.671 213.87C496.671 224.27 497.171 231.47 498.071 235.47C498.171 235.87 498.271 236.37 498.371 236.77C498.571 237.47 498.871 238.17 499.171 238.77C499.571 239.47 499.971 240.07 500.371 240.47C501.171 241.27 502.371 241.77 503.471 241.67C504.771 241.67 506.071 241.37 507.171 240.67C507.971 240.27 508.871 239.67 509.671 238.87C510.371 238.27 511.071 237.57 511.671 236.87C512.071 236.37 512.571 235.97 513.071 235.67C513.771 235.17 514.471 234.87 515.171 234.77C515.471 234.67 515.871 234.67 516.171 234.67C517.371 234.67 518.471 235.07 519.271 235.97L519.371 236.07L522.771 239.37C523.171 239.77 523.471 240.17 523.871 240.67C524.271 241.17 524.471 241.77 524.671 242.37C524.771 242.77 524.771 243.17 524.771 243.47C524.771 244.77 524.371 246.07 523.471 247.17C521.171 250.27 518.171 252.77 514.871 254.67C511.071 256.77 506.771 257.87 501.971 257.87C501.871 257.87 501.771 257.87 501.771 257.87C499.471 257.87 497.271 257.57 495.071 257.07C490.971 255.97 487.471 253.37 485.071 249.87C483.771 247.77 482.671 245.57 481.971 243.17C480.371 238.37 479.371 232.27 478.971 224.67C478.771 221.37 478.671 218.07 478.671 214.67C478.671 212.77 478.671 210.77 478.671 208.87C478.771 206.57 478.871 204.47 478.871 202.37Z" fill="#2e8e00" fill-rule="evenodd" opacity="1" stroke="none"/>
<path d="M534.671 202.37L530.171 202.47C528.671 202.47 527.171 201.87 526.171 200.87L526.071 200.77C524.971 199.57 524.371 198.17 524.371 196.47L524.371 193.17C524.371 192.37 524.571 191.47 524.871 190.67C525.171 189.97 525.571 189.37 526.171 188.87C527.271 187.77 528.671 187.17 530.171 187.07C530.371 187.07 530.471 187.07 530.671 187.07L535.071 186.87L535.471 175.97C535.571 174.27 536.171 172.77 537.371 171.57C538.471 170.37 539.971 169.77 541.571 169.77L541.671 169.77L547.371 169.77C548.171 169.77 548.971 169.87 549.671 170.17C550.471 170.47 551.071 170.87 551.671 171.47C552.171 171.97 552.671 172.57 552.971 173.27C553.271 173.97 553.471 174.67 553.371 175.47C553.371 177.07 553.271 179.97 553.171 183.97C553.171 184.87 553.071 185.87 553.071 186.77C556.571 186.77 560.171 186.97 563.671 187.17C564.571 187.17 565.471 187.37 566.271 187.77C566.971 188.07 567.571 188.47 568.071 188.97C569.271 190.17 569.871 191.57 569.871 193.27L569.871 196.57C569.871 197.37 569.771 198.17 569.471 198.87C569.171 199.67 568.771 200.27 568.171 200.87C567.671 201.37 567.071 201.87 566.371 202.17C565.671 202.47 564.971 202.67 564.171 202.57L552.571 202.37C552.471 206.17 552.471 209.97 552.471 213.87C552.471 224.27 552.971 231.47 553.871 235.47C553.971 235.87 554.071 236.37 554.171 236.77C554.371 237.47 554.671 238.17 554.971 238.77C555.371 239.47 555.771 240.07 556.171 240.47C556.971 241.27 558.171 241.77 559.271 241.67C560.571 241.67 561.871 241.37 562.971 240.67C563.771 240.27 564.671 239.67 565.471 238.87C566.171 238.27 566.871 237.57 567.471 236.87C567.871 236.37 568.371 235.97 568.871 235.67C569.571 235.17 570.271 234.87 570.971 234.77C571.271 234.67 571.671 234.67 571.971 234.67C573.171 234.67 574.271 235.07 575.071 235.97L575.171 236.07L578.571 239.37C578.971 239.77 579.271 240.17 579.671 240.67C580.071 241.17 580.271 241.77 580.471 242.37C580.571 242.77 580.571 243.17 580.571 243.47C580.571 244.77 580.171 246.07 579.271 247.17C576.971 250.27 573.971 252.77 570.671 254.67C566.871 256.77 562.571 257.87 557.771 257.87C557.671 257.87 557.571 257.87 557.571 257.87C555.271 257.87 553.071 257.57 550.871 257.07C546.771 255.97 543.271 253.37 540.871 249.87C539.571 247.77 538.471 245.57 537.771 243.17C536.171 238.37 535.171 232.27 534.771 224.67C534.571 221.37 534.471 218.07 534.471 214.67C534.471 212.77 534.471 210.77 534.471 208.87C534.571 206.57 534.571 204.47 534.671 202.37Z" fill="#321a81" fill-rule="evenodd" opacity="1" stroke="none"/>
<path d="M597.871 257.57L592.171 257.57C591.371 257.57 590.571 257.47 589.871 257.17C589.071 256.87 588.371 256.37 587.871 255.77C586.671 254.57 586.071 252.97 585.971 251.37L585.971 251.37C585.471 240.67 585.171 229.97 585.171 219.27C585.171 218.97 585.171 218.57 585.171 218.27C585.171 206.07 585.471 191.87 586.071 175.77C586.071 174.87 586.271 174.07 586.571 173.17C586.871 172.47 587.271 171.87 587.871 171.27C588.971 170.07 590.471 169.47 592.071 169.47C592.171 169.47 592.171 169.47 592.271 169.47L597.971 169.47C598.771 169.47 599.471 169.57 600.171 169.87C600.971 170.17 601.671 170.57 602.271 171.17C603.371 172.27 603.971 173.67 603.971 175.27L603.971 175.37C603.971 175.87 603.971 176.47 603.971 176.97C603.971 179.27 603.771 183.07 603.671 188.27C603.571 190.07 603.571 191.87 603.471 193.67C603.371 199.47 603.271 206.47 603.271 214.57C603.271 223.47 603.471 232.27 603.771 241.17L615.271 241.07C616.771 241.07 617.971 241.67 619.071 242.77C620.071 243.77 620.671 245.17 620.671 246.67C620.671 246.77 620.671 246.97 620.671 247.07L620.671 251.17C620.671 252.07 620.471 252.87 620.171 253.67C619.871 254.37 619.471 254.97 618.871 255.47C617.671 256.67 616.071 257.27 614.471 257.37L614.471 257.37C608.871 257.37 603.371 257.57 597.871 257.57Z" fill="#ff81a3" fill-rule="evenodd" opacity="1" stroke="none"/>
<path d="M642.471 224.27L639.371 224.27C639.571 225.67 639.871 226.97 640.171 228.37C640.471 229.67 640.871 230.97 641.271 232.07C641.371 232.37 641.471 232.57 641.571 232.87C642.171 234.37 642.971 235.77 643.871 237.07C646.071 240.07 649.671 241.77 653.471 241.57C657.571 241.57 661.671 240.07 665.971 236.97C667.071 236.17 668.171 235.77 669.371 235.77C670.071 235.77 670.771 235.87 671.371 236.17C672.171 236.47 672.771 237.07 673.271 237.77C673.371 237.97 673.471 238.07 673.571 238.27L676.071 242.77C676.671 243.87 676.971 244.97 676.971 245.97C676.971 246.77 676.771 247.47 676.471 248.17C676.171 248.87 675.671 249.47 674.971 249.97C674.771 250.07 674.671 250.17 674.471 250.27C667.371 254.67 659.171 257.07 650.871 256.97C647.671 256.97 644.371 256.47 641.371 255.37C637.071 253.77 633.371 250.87 630.671 247.17C628.271 243.97 626.471 240.37 625.271 236.57C623.071 230.17 622.071 222.27 622.071 212.97L622.071 212.97C622.071 208.67 622.271 204.37 622.871 200.07C624.171 190.57 626.971 183.17 631.271 177.87C631.671 177.37 632.171 176.77 632.671 176.27C637.471 171.37 643.571 168.87 650.971 168.87C652.871 168.87 654.771 168.97 656.671 169.37C658.971 169.77 660.971 170.37 662.871 171.27C663.171 171.37 663.471 171.57 663.671 171.67C667.771 173.87 671.171 177.17 673.271 181.27C674.571 183.77 675.471 186.57 675.871 189.37C676.071 190.77 676.171 192.17 676.171 193.57C676.171 197.47 675.371 201.47 673.871 205.07C673.771 205.37 673.671 205.57 673.571 205.87C671.971 209.37 669.771 212.47 666.971 215.07C666.471 215.57 665.871 216.07 665.271 216.57C661.071 220.07 655.971 222.37 650.471 223.37C647.871 224.07 645.171 224.27 642.471 224.27ZM643.271 210.47C644.271 210.47 645.371 210.37 646.371 210.27C647.271 210.17 648.271 209.97 649.171 209.67C650.571 209.27 652.071 208.67 653.371 207.97C655.271 206.87 656.871 205.57 658.071 203.97C659.371 202.27 660.271 200.37 660.871 198.27C661.171 197.07 661.371 195.77 661.371 194.47C661.371 193.27 661.171 191.97 660.871 190.77C660.571 189.77 660.171 188.77 659.571 187.97C658.471 186.27 656.671 185.07 654.571 184.87C654.171 184.77 653.671 184.77 653.271 184.77C648.571 184.67 644.271 187.47 642.471 191.87C640.271 196.07 639.071 202.17 638.871 210.17C639.971 210.27 641.071 210.37 642.271 210.47C642.571 210.47 642.971 210.47 643.271 210.47Z" fill="#097bb8" fill-rule="evenodd" opacity="1" stroke="none"/>
<path d="M154.912 362.297L149.212 362.297C148.312 362.297 147.312 362.097 146.512 361.697C145.912 361.397 145.312 360.997 144.912 360.497C143.712 359.297 143.112 357.697 143.112 356.097C142.712 343.397 142.512 330.797 142.512 318.097C142.512 308.597 142.612 299.097 142.812 289.697C141.612 289.697 140.512 289.697 139.312 289.697C137.112 289.697 135.112 289.697 133.512 289.697C132.812 289.697 132.112 289.697 131.412 289.697C130.612 289.697 129.712 289.597 129.012 289.197C128.312 288.897 127.612 288.397 127.112 287.897C125.912 286.797 125.312 285.197 125.312 283.597L125.312 283.597L125.312 280.497C125.312 279.597 125.512 278.797 125.812 277.997C126.112 277.297 126.512 276.697 127.112 276.197C128.312 274.997 129.912 274.397 131.512 274.297L131.512 274.297C134.212 274.197 136.912 274.097 139.612 273.997C142.412 273.897 145.312 273.897 148.312 273.897C149.312 273.897 150.412 273.897 151.412 273.897C154.712 273.897 158.012 273.897 161.312 273.997C164.412 274.097 167.312 274.097 170.112 274.197C170.512 274.197 170.912 274.197 171.312 274.197C172.212 274.197 173.112 274.397 173.912 274.797C174.612 275.097 175.212 275.497 175.712 275.997C176.912 277.197 177.512 278.597 177.512 280.297L177.512 283.397C177.512 284.397 177.312 285.397 176.812 286.297C176.512 286.797 176.112 287.397 175.712 287.797C175.012 288.497 174.212 289.097 173.212 289.297C172.612 289.497 172.012 289.597 171.412 289.597L160.812 289.497C160.412 300.197 160.312 310.897 160.312 321.597C160.312 333.097 160.612 344.597 161.112 355.997L161.112 356.297C161.112 357.797 160.512 359.297 159.412 360.297L159.312 360.397C158.012 361.697 156.512 362.297 154.912 362.297Z" fill="#2e8e00" fill-rule="evenodd" opacity="1" stroke="none"/>
<path d="M232.012 362.297L226.312 362.297C225.412 362.297 224.412 362.097 223.612 361.697C223.012 361.397 222.412 360.997 222.012 360.497C220.812 359.297 220.212 357.697 220.212 356.097C220.112 352.397 219.912 348.697 219.812 344.997C219.712 341.497 219.612 337.997 219.612 334.497C216.612 334.397 213.612 334.397 210.612 334.397C207.412 334.397 204.312 334.397 201.112 334.497C201.312 341.697 201.512 348.897 201.812 356.197L201.812 356.497C201.812 357.997 201.212 359.497 200.112 360.497L200.012 360.597C198.812 361.697 197.312 362.297 195.712 362.297L190.012 362.297C189.112 362.297 188.112 362.097 187.312 361.697C186.712 361.397 186.112 360.997 185.712 360.497C184.512 359.297 183.912 357.697 183.912 356.097C183.712 349.397 183.512 342.697 183.312 336.097C183.212 329.997 183.112 324.297 183.012 318.897C183.012 317.097 183.012 315.397 183.012 313.597C183.012 302.897 183.312 292.197 183.812 281.497C183.812 281.097 183.812 280.797 183.912 280.397C183.912 279.497 184.112 278.597 184.512 277.797C184.812 277.097 185.212 276.497 185.712 275.997C186.912 274.797 188.312 274.197 190.012 274.197L195.712 274.197C197.312 274.197 198.912 274.797 200.012 275.897C200.712 276.497 201.212 277.397 201.512 278.297C201.712 278.897 201.812 279.497 201.812 280.097L201.812 280.397C201.412 289.697 201.112 298.997 201.012 308.297C201.012 311.497 200.912 314.797 200.912 317.997C204.112 317.897 207.412 317.897 210.612 317.897C213.512 317.897 216.412 317.897 219.312 317.997C219.312 311.397 219.412 304.897 219.512 298.297C219.612 292.297 219.812 286.397 220.112 280.397C220.112 279.497 220.312 278.597 220.712 277.797C221.012 277.097 221.412 276.497 221.912 275.997C223.112 274.797 224.512 274.197 226.212 274.197L231.912 274.197C233.512 274.197 235.112 274.797 236.212 275.897C236.912 276.497 237.412 277.397 237.712 278.297C237.912 278.897 238.012 279.497 238.012 280.097L238.012 280.397C237.412 292.397 237.112 304.697 237.112 317.297C237.112 329.497 237.412 341.597 237.912 353.697C237.912 354.497 238.012 355.397 238.012 356.197L238.012 356.497C238.012 357.997 237.412 359.497 236.312 360.497L236.212 360.597C235.212 361.697 233.612 362.297 232.012 362.297Z" fill="#321a81" fill-rule="evenodd" opacity="1" stroke="none"/>
<path d="M261.712 362.297L255.912 362.297C255.012 362.297 254.212 362.097 253.412 361.797C252.712 361.497 252.112 361.097 251.612 360.497C250.412 359.297 249.812 357.697 249.712 356.097L249.712 356.097C249.512 349.697 249.312 343.297 249.212 336.897C249.112 333.297 249.112 329.697 249.112 326.097C249.112 321.597 249.112 316.997 249.212 312.497C249.312 308.297 249.412 304.097 249.612 299.797C249.612 298.897 249.812 297.997 250.212 297.197C250.512 296.497 250.912 295.897 251.412 295.397C252.612 294.197 254.012 293.597 255.712 293.597L261.512 293.597C262.312 293.597 263.112 293.697 263.912 293.997C264.612 294.297 265.312 294.697 265.812 295.297C266.912 296.397 267.512 297.797 267.512 299.397L267.512 299.497C267.512 299.597 267.512 299.597 267.512 299.697C267.512 300.297 267.412 301.997 267.212 304.997C267.212 305.497 267.112 306.097 267.112 306.597C267.012 307.897 267.012 309.197 267.012 310.497C266.912 314.797 266.812 320.297 266.812 327.197C266.812 327.297 266.812 327.397 266.812 327.397C266.812 336.997 267.012 346.497 267.512 356.097L267.512 356.397C267.512 357.897 266.912 359.397 265.812 360.497C265.812 360.497 265.812 360.497 265.712 360.597C264.912 361.697 263.412 362.297 261.712 362.297C261.812 362.297 261.812 362.297 261.712 362.297ZM263.012 290.997L256.412 290.997C254.712 290.997 253.212 290.397 252.112 289.197C251.012 288.097 250.312 286.597 250.312 284.997L250.312 284.897L250.412 280.297C250.412 278.597 251.112 277.097 252.212 275.897C253.312 274.697 254.812 274.097 256.412 274.097L256.512 274.097L263.012 274.097C264.012 274.097 265.012 274.297 265.912 274.797C266.412 275.097 267.012 275.497 267.412 275.897C268.112 276.597 268.712 277.397 268.912 278.397C269.112 278.997 269.212 279.597 269.212 280.197L269.112 284.797C269.112 286.497 268.412 287.997 267.312 289.197C266.212 290.397 264.712 290.997 263.012 290.997L263.012 290.997Z" fill="#ff81a3" fill-rule="evenodd" opacity="1" stroke="none"/>
<path d="M327.512 362.297L321.812 362.297C320.212 362.297 318.612 361.697 317.512 360.597C316.812 359.997 316.312 359.097 316.012 358.197C315.812 357.597 315.712 356.997 315.712 356.397L315.712 356.097C316.312 343.497 316.612 330.797 316.612 318.197C316.612 316.197 316.612 314.197 316.512 312.097C316.412 307.897 316.212 304.397 316.012 301.397C315.912 300.297 315.712 299.197 315.512 298.097C315.112 295.697 314.512 293.797 313.712 292.397C312.612 290.297 310.912 289.097 308.712 288.897C308.512 288.897 308.212 288.897 308.012 288.897C305.012 288.897 301.512 290.897 297.412 294.897C297.212 302.197 297.012 309.697 297.012 317.197C297.012 329.397 297.312 341.497 297.812 353.597C297.812 354.397 297.912 355.297 297.912 356.097L297.912 356.397C297.912 357.897 297.312 359.397 296.212 360.397L296.112 360.497C294.912 361.597 293.412 362.197 291.812 362.197L286.112 362.197C285.212 362.197 284.412 361.997 283.612 361.697C282.912 361.397 282.312 360.997 281.812 360.397C280.612 359.197 280.012 357.597 280.012 355.997L280.012 355.997C279.612 344.697 279.412 334.497 279.212 325.197C279.112 321.197 279.112 317.197 279.112 313.197C279.112 302.497 279.412 291.597 279.912 280.397C279.912 279.497 280.112 278.597 280.512 277.797C280.812 277.097 281.212 276.497 281.712 275.997C282.912 274.797 284.312 274.197 286.012 274.197L291.712 274.197C293.312 274.197 294.912 274.797 296.112 275.997C297.112 276.897 297.712 278.097 297.912 279.397C299.212 278.497 300.512 277.697 301.912 276.997C305.212 275.197 308.912 274.297 312.712 274.297C316.912 274.297 320.512 275.097 323.312 276.697C324.212 277.197 325.012 277.797 325.812 278.397C328.112 280.397 329.912 283.297 331.212 287.097C331.712 288.697 332.212 290.397 332.512 292.097C332.912 294.197 333.312 296.297 333.512 298.397C334.112 303.097 334.412 308.697 334.412 315.097C334.412 315.497 334.412 315.997 334.412 316.397C334.412 322.697 334.312 328.997 334.212 335.197C334.112 342.197 333.912 349.097 333.612 356.097C333.612 357.797 332.912 359.297 331.812 360.497C330.712 361.697 329.212 362.297 327.612 362.297C327.512 362.297 327.512 362.297 327.512 362.297Z" fill="#097bb8" fill-rule="evenodd" opacity="1" stroke="none"/>
<path d="M391.112 362.297L385.412 362.297C383.812 362.297 382.212 361.697 381.012 360.497C379.812 359.297 379.212 357.897 379.212 356.197C379.212 353.797 379.112 351.397 378.812 348.997C378.212 343.697 377.012 339.397 375.112 336.197C372.812 331.997 368.812 328.997 364.112 327.797C363.812 327.697 363.512 327.597 363.112 327.597C363.612 336.897 363.912 346.497 363.912 356.297C363.912 356.997 363.812 357.797 363.512 358.497C363.212 359.297 362.712 359.997 362.112 360.597C360.912 361.697 359.412 362.297 357.812 362.297L352.112 362.297C351.212 362.297 350.212 362.097 349.412 361.697C348.812 361.397 348.212 360.997 347.812 360.497C346.612 359.297 346.012 357.697 346.012 356.097C345.612 345.297 345.412 334.497 345.312 323.597C345.312 320.097 345.312 316.697 345.312 313.197C345.312 302.497 345.612 291.597 346.112 280.397C346.112 279.497 346.312 278.597 346.712 277.797C347.012 277.097 347.412 276.497 347.912 275.997C349.112 274.797 350.512 274.197 352.212 274.197L357.912 274.197C358.612 274.197 359.312 274.297 360.012 274.497C360.812 274.797 361.612 275.197 362.212 275.797C362.812 276.297 363.212 276.897 363.512 277.597C363.812 278.197 363.912 278.897 363.912 279.597C363.912 280.297 363.912 281.097 363.912 281.797C363.812 286.097 363.612 295.097 363.312 308.797C368.112 307.897 372.412 304.897 375.012 300.697C375.212 300.397 375.412 300.097 375.512 299.797C376.412 298.197 377.112 296.497 377.612 294.697C378.612 291.397 379.112 287.297 379.212 282.497C379.212 281.697 379.212 280.897 379.212 280.097C379.212 278.497 379.812 276.997 380.912 275.897L381.012 275.797C382.212 274.597 383.812 273.997 385.412 273.997L391.112 273.997C392.712 273.997 394.312 274.597 395.512 275.797L395.512 275.797C396.712 276.997 397.312 278.497 397.312 280.197C397.312 285.997 396.412 291.797 394.512 297.297C394.012 298.797 393.412 300.297 392.712 301.697C390.012 307.297 386.112 312.197 381.112 315.997C380.112 316.697 379.112 317.497 378.112 318.097C384.812 322.497 389.712 328.097 392.912 334.997C394.912 339.397 396.212 343.997 396.812 348.797C397.112 351.197 397.212 353.597 397.212 355.997C397.212 356.897 397.012 357.697 396.712 358.597C396.412 359.297 396.012 359.897 395.412 360.497C394.312 361.597 392.812 362.297 391.112 362.297L391.112 362.297Z" fill="#2e8e00" fill-rule="evenodd" opacity="1" stroke="none"/>
<path d="M423.012 328.897L419.912 328.897C420.112 330.297 420.412 331.597 420.712 332.997C421.012 334.297 421.412 335.597 421.812 336.697C421.912 336.997 422.012 337.197 422.112 337.497C422.712 338.997 423.512 340.397 424.412 341.697C426.612 344.697 430.212 346.397 434.012 346.197C438.112 346.197 442.212 344.697 446.512 341.597C447.612 340.797 448.712 340.397 449.912 340.397C450.612 340.397 451.312 340.497 451.912 340.797C452.712 341.097 453.312 341.697 453.812 342.397C453.912 342.597 454.012 342.697 454.112 342.897L456.612 347.397C457.212 348.497 457.512 349.597 457.512 350.597C457.512 351.397 457.312 352.097 457.012 352.797C456.712 353.497 456.212 354.097 455.512 354.597C455.312 354.697 455.212 354.797 455.012 354.897C447.912 359.297 439.712 361.697 431.412 361.597C428.212 361.597 424.912 361.097 421.912 359.997C417.612 358.397 413.912 355.497 411.212 351.797C408.812 348.597 407.012 344.997 405.812 341.197C403.712 334.797 402.612 326.897 402.612 317.597L402.612 317.597C402.612 313.297 402.812 308.997 403.412 304.697C404.712 295.197 407.512 287.797 411.812 282.497C412.212 281.997 412.712 281.397 413.212 280.897C418.012 275.997 424.112 273.497 431.512 273.497C433.412 273.497 435.312 273.597 437.212 273.997C439.512 274.397 441.512 274.997 443.412 275.897C443.712 275.997 444.012 276.197 444.212 276.297C448.312 278.497 451.712 281.797 453.812 285.897C455.112 288.397 456.012 291.197 456.412 293.997C456.612 295.397 456.712 296.797 456.712 298.197C456.712 302.097 455.912 306.097 454.412 309.697C454.312 309.997 454.212 310.197 454.112 310.497C452.512 313.997 450.312 317.097 447.512 319.697C447.012 320.197 446.412 320.697 445.812 321.197C441.612 324.697 436.512 326.997 431.012 327.997C428.312 328.697 425.712 328.897 423.012 328.897ZM423.812 315.097C424.812 315.097 425.912 314.997 426.912 314.897C427.812 314.797 428.812 314.597 429.712 314.297C431.112 313.897 432.612 313.297 433.912 312.597C435.812 311.497 437.412 310.197 438.612 308.597C439.912 306.897 440.812 304.997 441.412 302.897C441.712 301.697 441.912 300.397 441.912 299.097C441.912 297.897 441.712 296.597 441.412 295.397C441.112 294.397 440.712 293.397 440.112 292.597C439.012 290.897 437.212 289.697 435.112 289.497C434.712 289.397 434.212 289.397 433.812 289.397C429.112 289.297 424.812 292.097 423.012 296.497C420.812 300.697 419.612 306.797 419.412 314.797C420.512 314.897 421.612 314.997 422.812 315.097C423.112 315.097 423.412 315.097 423.812 315.097Z" fill="#321a81" fill-rule="evenodd" opacity="1" stroke="none"/>
<path d="M512.012 362.297L506.312 362.297C504.712 362.297 503.112 361.697 501.912 360.497C500.712 359.297 500.112 357.897 500.112 356.197L500.112 353.497C500.112 349.297 499.312 345.897 497.812 343.397C496.412 341.097 494.312 339.397 491.712 338.497C490.112 337.997 488.512 337.597 486.812 337.397C485.612 337.197 484.312 337.097 483.112 337.097C483.512 343.497 483.712 349.897 483.712 356.297C483.712 356.997 483.612 357.797 483.312 358.497C483.012 359.297 482.512 359.997 481.912 360.597C480.712 361.697 479.212 362.297 477.612 362.297L471.912 362.297C471.012 362.297 470.212 362.097 469.412 361.797C468.712 361.497 468.112 361.097 467.612 360.497C466.412 359.297 465.812 357.697 465.812 356.097L465.812 356.097C465.412 344.797 465.212 334.597 465.012 325.297C464.912 321.297 464.912 317.297 464.912 313.297C464.912 302.597 465.212 291.697 465.712 280.497C465.712 279.697 465.912 278.897 466.212 278.197C466.512 277.397 467.012 276.697 467.512 276.197C468.612 275.097 470.012 274.297 471.612 274.197C473.912 273.897 476.312 273.697 478.612 273.597C480.312 273.497 482.012 273.497 483.612 273.497C487.912 273.497 492.212 273.997 496.412 275.097C497.612 275.397 498.912 275.697 500.112 276.097C505.912 277.797 510.712 280.997 514.412 285.797C516.212 288.097 517.712 290.597 518.712 293.297C519.612 295.797 520.112 298.497 520.112 301.197C520.112 307.097 518.612 312.597 515.512 317.897C513.412 321.497 510.612 324.697 507.412 327.297C506.412 328.097 505.312 328.897 504.312 329.597C507.612 331.397 510.512 333.897 512.812 336.797C516.012 340.797 517.812 345.597 518.212 351.197C518.312 351.997 518.312 352.897 518.312 353.697L518.212 356.297C518.212 357.197 518.012 357.997 517.712 358.897C517.412 359.597 517.012 360.197 516.412 360.797C515.212 361.697 513.812 362.297 512.012 362.297ZM482.912 317.097L483.012 323.897C484.812 323.597 486.512 323.097 488.212 322.497C489.612 321.997 491.012 321.297 492.412 320.497C496.012 318.397 498.712 315.797 500.512 312.697C501.412 311.297 502.012 309.697 502.512 308.197C503.012 306.697 503.212 305.097 503.212 303.497C503.212 300.397 502.212 297.297 500.312 294.897C500.112 294.697 500.012 294.497 499.812 294.197C498.512 292.597 496.812 291.197 494.912 290.197C493.612 289.497 492.112 288.797 490.412 288.297C490.212 288.197 489.912 288.197 489.712 288.097C488.612 287.797 487.512 287.597 486.412 287.397C485.512 287.297 484.512 287.197 483.512 287.197C483.112 297.097 482.912 307.097 482.912 317.097Z" fill="#ff81a3" fill-rule="evenodd" opacity="1" stroke="none"/>
<path d="M576.412 288.397L573.912 292.897C573.012 294.497 571.712 295.297 570.012 295.397C569.912 295.397 569.712 295.397 569.612 295.397C568.912 295.397 568.312 295.297 567.712 294.997C567.312 294.797 566.812 294.597 566.412 294.297C566.412 294.297 566.312 294.297 566.312 294.197C562.012 291.397 557.512 289.897 552.712 289.897C551.412 289.897 550.112 290.097 548.812 290.497C547.612 290.897 546.512 291.497 545.512 292.297C543.912 293.597 542.812 295.597 542.612 297.697C542.512 298.197 542.512 298.697 542.512 299.197C542.512 300.097 542.812 300.997 543.312 301.797C544.012 302.997 545.212 304.097 546.812 305.297C547.312 305.697 547.812 305.997 548.412 306.397C549.312 306.997 550.312 307.497 551.212 308.097C552.212 308.697 553.312 309.297 554.312 309.897C556.312 310.997 558.212 312.097 560.212 313.297C563.912 315.597 567.012 317.797 569.212 319.897C569.312 319.997 569.412 320.097 569.612 320.197C574.712 325.097 577.312 330.897 577.312 337.697C577.312 342.297 576.212 346.397 574.012 350.297C572.712 352.697 571.012 354.697 568.912 356.497C564.912 359.997 559.812 362.197 554.512 362.697C553.212 362.797 552.012 362.897 550.712 362.897C542.212 362.897 534.312 360.697 527.112 356.197C526.512 355.897 526.012 355.397 525.612 354.897C524.912 354.097 524.612 352.997 524.612 351.797C524.612 351.197 524.712 350.697 524.912 350.097C525.012 349.697 525.212 349.197 525.512 348.697C525.512 348.597 525.612 348.597 525.612 348.497C526.512 346.897 527.312 345.397 528.212 343.797C528.512 343.197 529.012 342.597 529.612 342.197C530.412 341.697 531.312 341.397 532.412 341.397C533.512 341.397 534.712 341.797 535.812 342.597C540.112 345.397 544.612 346.897 549.412 346.897C550.712 346.897 552.012 346.697 553.312 346.297C554.512 345.897 555.612 345.297 556.612 344.497C558.212 343.197 559.312 341.197 559.512 339.097C559.612 338.597 559.612 338.097 559.612 337.597C559.612 336.597 559.312 335.597 558.812 334.797C558.612 334.397 558.312 333.997 558.012 333.697C557.512 333.197 557.012 332.697 556.412 332.197C554.612 330.697 551.812 328.897 548.012 326.797C547.812 326.697 547.612 326.597 547.512 326.497C545.512 325.397 543.612 324.297 541.712 323.097C537.812 320.697 534.712 318.397 532.512 316.197C530.212 314.097 528.312 311.497 526.912 308.697C525.512 305.697 524.912 302.497 524.912 299.197C524.912 292.697 527.012 287.097 531.212 282.397C536.312 276.797 543.112 273.997 551.412 273.997C559.812 273.897 568.012 276.297 575.112 280.697C576.612 281.597 577.412 282.897 577.512 284.597C577.512 284.797 577.512 284.897 577.512 285.097C577.312 286.197 577.012 287.297 576.412 288.397L576.412 288.397Z" fill="#097bb8" fill-rule="evenodd" opacity="1" stroke="none"/>
<path d="M28.8515 258.57C19.7515 258.57 14.3515 257.67 12.6515 255.97C11.4515 254.77 10.8515 253.27 10.8515 251.57L10.8515 251.57C10.6515 244.87 10.4515 238.17 10.2515 231.57C10.1515 225.47 10.0515 219.77 9.95147 214.37C9.95147 212.57 9.95147 210.87 9.95147 209.07C9.95147 198.37 10.2515 187.67 10.7515 176.97C10.7515 176.57 10.7515 176.27 10.8515 175.87C10.8515 174.97 11.0515 174.07 11.4515 173.27C11.7515 172.57 12.1515 171.97 12.6515 171.47C13.8515 170.27 15.2515 169.57 16.9515 169.47C19.4515 169.27 21.9515 169.07 24.4515 168.97C26.2515 168.87 28.0515 168.87 29.8515 168.87C33.5515 168.87 37.1515 169.07 40.8515 169.57C50.0515 170.87 57.0515 174.07 61.5515 179.07C65.0515 182.87 67.0515 187.77 66.9515 192.97C66.9515 197.67 65.3515 202.27 62.4515 205.87C62.3515 205.97 62.3515 206.07 62.2515 206.07C60.8515 207.87 59.1515 209.47 57.3515 210.87C56.1515 211.77 54.9515 212.57 53.6515 213.27C55.4515 214.27 57.1515 215.47 58.7515 216.77C60.0515 217.87 61.2515 219.07 62.2515 220.37C63.9515 222.57 65.2515 224.97 66.0515 227.67C66.6515 229.57 66.9515 231.67 66.9515 233.67C66.9515 238.67 65.0515 243.57 61.6515 247.27C60.9515 248.07 60.2515 248.77 59.5515 249.47C56.9515 251.87 53.8515 253.77 50.4515 254.97C49.2515 255.37 48.0515 255.77 46.8515 256.07C40.9515 257.77 34.9515 258.57 28.8515 258.57ZM28.6515 245.17L30.2515 245.17C31.3515 245.17 32.5515 245.17 33.6515 245.07C34.5515 244.97 35.3515 244.87 36.2515 244.77C37.6515 244.57 39.0515 244.17 40.3515 243.77C41.7515 243.37 43.0515 242.77 44.2515 242.17C45.2515 241.67 46.2515 240.97 47.0515 240.27C47.8515 239.57 48.5515 238.87 49.1515 237.97C50.1515 236.57 50.7515 234.87 50.7515 233.07C50.7515 230.37 49.6515 227.87 47.6515 225.97C46.7515 225.07 45.7515 224.37 44.5515 223.57C44.4515 223.47 44.3515 223.47 44.2515 223.37C42.6515 222.47 41.0515 221.77 39.3515 221.27C37.7515 220.77 36.0515 220.47 34.1515 220.17C32.1515 219.87 30.0515 219.67 28.0515 219.67C28.0515 228.17 28.2515 236.67 28.6515 245.17ZM32.1515 182.37L28.6515 182.37C28.2515 190.57 28.0515 198.77 27.9515 207.07C34.9515 206.87 40.4515 205.57 44.2515 203.37C45.3515 202.77 46.4515 201.97 47.3515 201.07C48.5515 199.87 49.4515 198.67 50.0515 197.27C50.4515 196.17 50.7515 194.97 50.7515 193.77C50.7515 191.37 49.7515 189.07 47.8515 187.47C47.0515 186.67 46.0515 185.97 44.8515 185.27C44.1515 184.87 43.5515 184.57 42.8515 184.27C41.6515 183.77 40.3515 183.37 39.0515 183.17C37.0515 182.57 34.7515 182.37 32.1515 182.37Z" fill="#097bb8" fill-rule="evenodd" opacity="1" stroke="none"/>
<path d="M88.8515 257.77L83.1515 257.77C82.3515 257.77 81.5515 257.67 80.8515 257.37C80.0515 257.07 79.3515 256.57 78.8515 255.97C77.6515 254.77 77.0515 253.17 76.9515 251.57L76.9515 251.57C76.4515 240.87 76.1515 230.07 76.1515 219.37C76.1515 219.07 76.1515 218.67 76.1515 218.37C76.1515 206.17 76.4515 191.97 77.0515 175.87C77.0515 174.97 77.2515 174.17 77.5515 173.27C77.8515 172.57 78.2515 171.97 78.8515 171.37C79.9515 170.17 81.4515 169.57 83.0515 169.57C83.1515 169.57 83.1515 169.57 83.2515 169.57L88.9515 169.57C89.7515 169.57 90.4515 169.67 91.1515 169.97C91.9515 170.27 92.6515 170.67 93.2515 171.27C94.3515 172.37 94.9515 173.77 94.9515 175.37L94.9515 175.47C94.9515 175.97 94.9515 176.57 94.9515 177.07C94.9515 179.37 94.7515 183.17 94.6515 188.37C94.5515 190.17 94.5515 191.97 94.4515 193.77C94.2515 199.47 94.1515 206.47 94.1515 214.67C94.1515 223.57 94.3515 232.37 94.6515 241.27L106.151 241.17C107.651 241.17 108.851 241.77 109.951 242.87C110.951 243.87 111.551 245.27 111.551 246.77C111.551 246.87 111.551 247.07 111.551 247.17L111.551 251.27C111.551 252.17 111.351 252.97 111.051 253.77C110.751 254.47 110.351 255.07 109.751 255.57C108.551 256.77 106.951 257.37 105.351 257.47L105.351 257.47C99.9515 257.57 94.3515 257.77 88.8515 257.77Z" fill="#2e8e00" fill-rule="evenodd" opacity="1" stroke="none"/>
<path d="M164.151 257.87L158.451 257.87C156.851 257.87 155.251 257.27 154.051 256.07C153.451 255.57 153.051 254.97 152.751 254.27C152.551 253.77 152.351 253.27 152.351 252.77C150.451 254.07 148.451 255.17 146.451 255.97C143.651 257.07 140.951 257.77 138.151 257.77C137.951 257.77 137.751 257.77 137.651 257.77C135.851 257.77 134.151 257.67 132.351 257.27C129.251 256.67 126.551 255.47 124.451 253.67C123.251 252.57 122.251 251.37 121.351 249.97C120.651 248.77 119.951 247.47 119.451 245.97C119.151 245.27 118.951 244.57 118.751 243.87C118.151 241.87 117.651 239.77 117.351 237.67C116.551 233.17 116.151 227.57 115.951 220.97C115.851 218.87 115.851 216.77 115.851 214.67C115.851 204.47 116.151 191.47 116.651 175.77C116.651 174.87 116.851 173.97 117.251 173.17C117.551 172.47 117.951 171.87 118.451 171.37C119.651 170.17 121.051 169.57 122.751 169.57L128.551 169.57C129.351 169.57 130.151 169.67 130.951 169.97C131.651 170.27 132.351 170.67 132.851 171.27C133.951 172.37 134.551 173.77 134.551 175.37L134.551 175.47L134.551 175.77C133.951 188.47 133.651 201.07 133.651 213.77C133.651 216.37 133.651 218.97 133.751 221.57C133.951 228.67 134.551 233.77 135.451 236.97C135.651 237.57 135.851 238.17 136.051 238.67C137.351 241.47 139.351 242.97 142.151 242.97C143.251 242.97 144.351 242.77 145.351 242.27C147.051 241.57 148.951 240.37 150.951 238.57C151.551 238.07 152.151 237.47 152.751 236.97C152.951 229.67 153.151 222.17 153.151 214.67C153.151 201.87 152.851 189.17 152.251 176.37C152.251 176.17 152.251 175.97 152.251 175.77L152.251 175.47C152.251 173.97 152.851 172.47 153.951 171.47L154.051 171.37C155.251 170.27 156.751 169.67 158.351 169.67L164.051 169.67C164.951 169.67 165.951 169.87 166.751 170.27C167.351 170.57 167.951 170.97 168.351 171.47C169.551 172.67 170.151 174.27 170.151 175.87C170.551 186.97 170.751 197.17 170.951 206.37C171.051 210.37 171.051 214.37 171.051 218.37C171.051 229.17 170.751 240.17 170.151 251.47C170.151 252.37 169.951 253.27 169.551 254.07C169.251 254.77 168.851 255.37 168.351 255.87C167.251 257.27 165.851 257.87 164.151 257.87Z" fill="#321a81" fill-rule="evenodd" opacity="1" stroke="none"/>
<path d="M199.151 257.87L193.351 257.87C192.451 257.87 191.651 257.67 190.851 257.37C190.151 257.07 189.551 256.67 189.051 256.07C187.851 254.87 187.251 253.27 187.251 251.67L187.251 251.67L186.751 237.17L181.951 237.27C180.451 237.27 178.951 236.67 177.951 235.57C177.951 235.57 177.951 235.57 177.851 235.47C176.751 234.27 176.151 232.87 176.151 231.07L176.151 227.77C176.151 226.87 176.351 226.07 176.651 225.27C176.951 224.57 177.351 223.97 177.951 223.47C179.151 222.27 180.751 221.67 182.351 221.57L182.351 221.57L186.451 221.37L186.451 212.07C186.451 208.37 186.551 204.57 186.851 200.87C187.351 193.57 188.551 187.67 190.251 183.07C190.851 181.37 191.651 179.67 192.651 178.07C195.451 173.57 200.151 170.57 205.351 169.97C206.751 169.77 208.051 169.67 209.451 169.67C218.251 169.67 225.351 173.17 230.951 180.07C231.051 180.17 231.151 180.27 231.251 180.37C232.051 181.37 232.551 182.67 232.551 184.07C232.551 184.97 232.351 185.77 231.851 186.57C231.551 187.07 231.251 187.47 230.851 187.97C230.751 188.07 230.651 188.17 230.651 188.17L227.251 191.47C226.851 191.87 226.351 192.27 225.751 192.47C225.251 192.67 224.651 192.77 224.051 192.77C223.051 192.77 222.051 192.47 221.251 191.97C220.751 191.67 220.251 191.27 219.851 190.77C219.751 190.67 219.651 190.57 219.651 190.57C218.951 189.77 218.151 188.97 217.351 188.27C215.351 186.67 213.351 185.87 211.351 185.87C209.251 185.87 207.751 186.97 206.751 189.27C206.751 189.27 206.751 189.27 206.751 189.37C206.451 190.07 206.251 190.67 206.051 191.37C205.851 192.07 205.651 192.87 205.551 193.67C205.451 193.97 205.451 194.27 205.351 194.67C204.951 197.27 204.751 201.27 204.651 206.57C204.651 208.47 204.651 210.27 204.651 212.17L204.651 221.37C208.351 221.37 212.051 221.57 215.751 221.77C216.651 221.77 217.451 221.97 218.251 222.37C218.951 222.67 219.551 223.17 220.151 223.67C221.251 224.77 221.951 226.27 221.951 227.87L221.951 227.97L221.951 231.27C221.951 232.97 221.451 234.47 220.351 235.57C219.351 236.67 217.951 237.27 216.551 237.27L216.451 237.27L205.051 237.17L205.251 252.87C205.251 253.97 204.851 255.07 204.151 255.87C203.951 256.07 203.851 256.27 203.651 256.47C202.751 257.37 201.651 257.87 200.351 257.97C199.751 257.77 199.451 257.87 199.151 257.87Z" fill="#ff81a3" fill-rule="evenodd" opacity="1" stroke="none"/>
<path d="M252.851 257.87L247.051 257.87C246.151 257.87 245.351 257.67 244.551 257.37C243.851 257.07 243.251 256.67 242.751 256.07C241.551 254.87 240.951 253.27 240.951 251.67L240.951 251.67L240.451 237.17L235.651 237.27C234.151 237.27 232.651 236.67 231.651 235.57C231.651 235.57 231.651 235.57 231.551 235.47C230.451 234.27 229.851 232.87 229.851 231.07L229.851 227.77C229.851 226.87 230.051 226.07 230.351 225.27C230.651 224.57 231.051 223.97 231.651 223.47C232.851 222.27 234.451 221.67 236.051 221.57L236.051 221.57L240.151 221.37L240.151 212.07C240.151 208.37 240.251 204.57 240.551 200.87C241.051 193.57 242.251 187.67 243.951 183.07C244.551 181.37 245.351 179.67 246.351 178.07C249.151 173.57 253.851 170.57 259.051 169.97C260.451 169.77 261.751 169.67 263.151 169.67C271.951 169.67 279.051 173.17 284.651 180.07C284.751 180.17 284.851 180.27 284.951 180.37C285.751 181.37 286.251 182.67 286.251 184.07C286.251 184.97 286.051 185.77 285.551 186.57C285.251 187.07 284.951 187.47 284.551 187.97C284.451 188.07 284.351 188.17 284.351 188.17L280.951 191.47C280.551 191.87 280.051 192.27 279.451 192.47C278.951 192.67 278.351 192.77 277.751 192.77C276.751 192.77 275.751 192.47 274.951 191.97C274.451 191.67 273.951 191.27 273.551 190.77C273.451 190.67 273.351 190.57 273.351 190.57C272.651 189.77 271.851 188.97 271.051 188.27C269.051 186.67 267.051 185.87 265.051 185.87C262.951 185.87 261.451 186.97 260.451 189.27C260.451 189.27 260.451 189.27 260.451 189.37C260.151 190.07 259.951 190.67 259.751 191.37C259.551 192.07 259.351 192.87 259.251 193.67C259.151 193.97 259.151 194.27 259.051 194.67C258.651 197.27 258.451 201.27 258.351 206.57C258.351 208.47 258.351 210.27 258.351 212.17L258.351 221.37C262.051 221.37 265.751 221.57 269.451 221.77C270.351 221.77 271.151 221.97 271.951 222.37C272.651 222.67 273.251 223.17 273.851 223.67C274.951 224.77 275.651 226.27 275.651 227.87L275.651 227.97L275.651 231.27C275.651 232.97 275.151 234.47 274.051 235.57C273.051 236.67 271.651 237.27 270.251 237.27L270.151 237.27L258.751 237.17L258.951 252.87C258.951 253.97 258.551 255.07 257.851 255.87C257.651 256.07 257.551 256.27 257.351 256.47C256.451 257.37 255.351 257.87 254.051 257.97C253.451 257.77 253.151 257.87 252.851 257.87Z" fill="#097bb8" fill-rule="evenodd" opacity="1" stroke="none"/>
<path d="M300.651 202.87L297.951 202.87C297.351 202.87 296.751 202.67 296.351 202.37C296.251 202.27 296.051 202.17 295.951 202.07C295.051 201.17 294.451 196.47 293.951 187.97C293.851 186.37 293.851 184.77 293.751 183.17C293.651 178.77 293.551 175.47 293.551 173.27C293.551 172.37 293.851 171.67 294.351 171.17C294.851 170.67 295.551 170.27 296.351 170.27L296.451 170.27L302.051 170.27C302.451 170.27 302.751 170.37 303.151 170.47C303.551 170.57 303.851 170.77 304.151 171.07C304.651 171.47 304.851 172.07 304.951 172.77C304.951 172.87 304.951 173.07 304.951 173.17C304.951 173.27 304.951 173.37 304.951 173.37C304.951 174.07 304.851 175.87 304.651 178.77C304.651 178.97 304.651 179.17 304.651 179.37C304.451 182.37 304.151 187.57 303.851 194.87C303.751 196.57 303.751 198.27 303.651 199.97C303.651 200.77 303.351 201.47 302.851 201.97C302.851 201.97 302.851 201.97 302.751 202.07C302.251 202.57 301.451 202.87 300.651 202.87Z" fill="#2e8e00" fill-rule="evenodd" opacity="1" stroke="none"/>
<path d="M362.951 184.47L360.451 188.97C359.551 190.57 358.251 191.37 356.551 191.47C356.451 191.47 356.251 191.47 356.151 191.47C355.451 191.47 354.851 191.37 354.251 191.07C353.851 190.87 353.351 190.67 352.951 190.37C352.951 190.37 352.851 190.37 352.851 190.27C348.551 187.47 344.051 185.97 339.251 185.97C337.951 185.97 336.651 186.17 335.351 186.57C334.151 186.97 333.051 187.57 332.051 188.37C330.451 189.67 329.351 191.67 329.151 193.77C329.051 194.27 329.051 194.77 329.051 195.27C329.051 196.17 329.351 197.07 329.851 197.87C330.551 199.07 331.751 200.17 333.351 201.37C333.851 201.77 334.351 202.07 334.951 202.47C335.851 203.07 336.851 203.57 337.751 204.17C338.751 204.77 339.851 205.37 340.851 205.97C342.851 207.07 344.751 208.17 346.751 209.37C350.451 211.67 353.551 213.87 355.751 215.97C355.851 216.07 355.951 216.17 356.151 216.27C361.251 221.17 363.851 226.97 363.851 233.77C363.851 238.37 362.751 242.47 360.551 246.37C359.251 248.77 357.551 250.77 355.451 252.57C351.451 256.07 346.351 258.27 341.051 258.77C339.751 258.87 338.551 258.97 337.251 258.97C328.751 258.97 320.851 256.77 313.651 252.27C313.051 251.97 312.551 251.47 312.151 250.97C311.451 250.17 311.151 249.07 311.151 247.87C311.151 247.27 311.251 246.77 311.451 246.17C311.551 245.77 311.751 245.27 312.051 244.77C312.051 244.67 312.151 244.67 312.151 244.57C313.051 242.97 313.851 241.47 314.751 239.87C315.051 239.27 315.551 238.67 316.151 238.27C316.951 237.77 317.851 237.47 318.951 237.47C320.051 237.47 321.251 237.87 322.351 238.67C326.651 241.47 331.151 242.97 335.951 242.97C337.251 242.97 338.551 242.77 339.851 242.37C341.051 241.97 342.151 241.37 343.151 240.57C344.751 239.27 345.851 237.27 346.051 235.17C346.151 234.67 346.151 234.17 346.151 233.67C346.151 232.67 345.851 231.67 345.351 230.87C345.151 230.47 344.851 230.07 344.551 229.77C344.051 229.27 343.551 228.77 342.951 228.27C341.151 226.77 338.351 224.97 334.551 222.87C334.351 222.77 334.151 222.67 334.051 222.57C332.051 221.47 330.151 220.37 328.251 219.17C324.351 216.77 321.251 214.47 319.051 212.27C316.751 210.17 314.851 207.57 313.451 204.77C312.051 201.77 311.451 198.57 311.451 195.27C311.451 188.77 313.551 183.17 317.751 178.47C322.851 172.87 329.651 170.07 337.951 170.07C346.351 169.97 354.551 172.37 361.651 176.77C363.151 177.67 363.951 178.97 364.051 180.67C364.051 180.87 364.051 180.97 364.051 181.17C363.851 182.27 363.551 183.37 362.951 184.47L362.951 184.47Z" fill="#321a81" fill-rule="evenodd" opacity="1" stroke="none"/>
<g opacity="1">
<path d="M415.812 91.9549C414.489 92.6442 413.827 93.3336 413.827 93.3336C413.364 93.3336 413.629 93.3336 413.166 93.3336C412.504 93.3336 411.842 93.3336 411.181 93.3336C409.791 93.4026 408.997 92.9889 408.534 92.6442C408.005 92.2996 407.872 91.9549 407.211 91.2655C406.483 90.5072 406.086 90.4382 405.887 89.8867C405.689 89.3352 405.821 88.8527 405.887 88.508C405.953 88.1633 406.086 87.6118 406.549 87.1292C407.078 86.5777 407.872 86.4399 407.872 86.4399C407.872 86.4399 408.997 85.8884 409.857 85.7505C410.254 85.6816 410.651 85.6816 410.982 85.7505C411.114 85.7505 411.313 85.7505 411.445 85.7505L412.769 85.7505C413.033 85.7505 413.364 85.6126 413.563 85.4058C413.695 85.2679 413.761 85.199 413.894 85.0611C414.489 84.4407 414.489 84.4407 414.555 84.3717C415.018 83.8892 415.085 83.1998 415.217 82.3036C415.283 81.8211 415.349 81.2006 415.283 80.4423C415.482 79.9597 415.68 79.3393 415.879 78.8567L416.276 78.4431C416.408 78.3052 416.54 78.0295 416.54 77.8227C416.54 77.5469 416.54 77.2022 416.474 76.7886C416.342 76.0992 415.945 75.6167 415.812 75.4099C415.415 74.9273 415.349 75.0652 415.085 74.6516C414.754 74.0311 414.754 73.2728 415.085 72.7213C415.283 72.3077 415.415 72.4456 415.812 71.963C415.945 71.7562 416.342 71.2736 416.474 70.5842C416.54 70.1706 416.54 69.757 416.54 69.4123C416.54 69.2055 416.474 68.9987 416.474 68.7919L416.474 66.448C416.342 65.2071 416.077 64.3109 415.812 63.6905C415.482 62.8633 415.151 62.4496 415.151 61.6224C415.151 60.933 415.349 60.5883 415.151 60.2436C414.952 59.8989 414.489 59.4853 412.835 59.5543C412.239 59.3474 411.71 59.0717 411.181 58.8649L409.857 57.4861C409.394 57.2104 408.732 56.9346 407.872 56.7968C407.078 56.6589 406.747 56.8657 405.887 56.7968C404.696 56.7278 404.564 56.3831 403.24 56.1074C401.851 55.8316 400.792 55.9695 399.932 56.1074C398.609 56.3142 397.947 56.3831 397.285 56.7968C396.359 57.3483 396.16 58.0376 395.3 58.1755C394.705 58.2444 394.506 57.9687 393.977 58.1755C393.381 58.3823 393.315 58.8649 392.654 59.5543C391.793 60.4504 391.529 60.1058 390.668 60.933C390.338 61.2777 390.404 61.3466 389.345 63.0011C389.147 63.3458 388.75 63.8973 388.022 65.0693C386.765 66.9995 386.765 66.9306 386.698 67.1374C386.434 67.6889 385.838 68.9987 386.037 70.5842C386.037 70.7911 386.301 71.4115 386.698 72.6524C386.963 73.4107 387.095 73.6864 387.36 74.0311C387.691 74.3758 387.823 74.3758 388.022 74.7205C388.22 75.0652 388.286 75.6856 388.022 76.0992C387.691 76.5818 387.029 76.3061 386.698 76.7886C386.434 77.2022 386.566 77.7537 386.698 78.1674C386.963 79.0636 387.426 79.6151 388.022 80.2355C388.75 80.9938 388.948 80.9938 389.345 81.6142C389.808 82.3036 389.808 82.7172 390.007 82.993C390.404 83.6134 391.727 84.0271 395.697 82.8551C395.763 82.9241 395.83 82.9241 395.962 82.993C396.16 83.4756 396.425 83.8892 396.624 84.3717C396.624 84.6475 396.624 84.7854 396.624 85.0611C396.425 85.5437 396.16 85.9573 395.962 86.4399C395.697 86.9224 395.3 87.8186 395.3 87.8186C394.043 90.4382 394.109 90.3004 393.977 90.5761C393.845 90.9897 393.381 92.0238 393.315 93.3336C393.183 95.1949 393.778 95.8154 393.977 98.1592C394.109 99.3312 394.043 100.296 393.977 100.917L393.977 104.364C393.845 104.708 393.646 105.191 393.315 105.742C392.852 106.432 392.323 106.845 391.992 107.121C391.33 107.673 390.867 108.431 390.007 109.879C389.279 111.051 388.551 112.291 388.022 114.015C387.823 114.773 387.36 116.221 387.36 118.151C387.36 119.875 387.691 121.253 388.022 122.287C388.353 123.459 388.683 124.287 389.345 125.734C390.139 127.527 390.735 128.699 391.33 129.87C391.992 131.18 392.918 133.042 393.977 135.385C394.043 135.868 394.109 136.626 393.977 137.454C393.911 137.867 393.778 138.35 393.315 139.522C392.852 140.694 392.587 141.245 391.992 142.279C391.33 143.451 391.065 145.933 392.654 151.93C392.786 152.344 392.852 152.827 392.654 153.309C392.455 153.654 392.257 153.723 391.992 153.999C391.462 154.55 391.198 155.446 391.33 156.067C391.529 157.17 392.852 157.652 393.977 158.135C394.705 158.411 395.896 158.824 397.418 158.824C397.682 158.824 398.013 158.893 398.278 159.1C398.543 159.307 398.873 159.445 399.27 159.514C400.329 159.72 401.189 159.307 401.652 159.031C401.851 158.893 402.116 158.893 402.314 158.893C402.711 158.962 403.307 159.031 403.902 158.824C405.292 158.342 405.821 156.963 405.887 156.756C405.953 156.549 406.218 155.722 405.887 155.377C405.556 154.964 404.63 155.033 403.637 155.791C403.108 155.791 402.645 155.791 402.116 155.791C401.189 155.102 400.197 154.343 399.27 153.378C399.072 153.171 398.807 152.896 398.609 152.689C398.476 152.551 398.344 152.413 398.212 152.275C398.079 152.137 397.947 151.93 397.947 151.655L397.947 149.931C397.947 148.553 398.145 146.898 398.609 145.106C398.807 144.416 399.006 143.796 399.204 143.244C399.27 143.106 399.337 142.969 399.469 142.831C399.866 142.417 400.263 142.003 400.594 141.659C401.123 141.038 402.314 139.66 402.579 137.523C402.645 136.902 402.645 136.351 402.645 135.868C402.645 135.592 402.777 135.317 402.976 135.248L403.439 134.972C403.704 134.834 404.034 134.834 404.299 135.041C405.292 135.868 406.218 136.695 407.211 137.454C407.409 137.936 407.674 138.626 407.872 139.522C408.402 141.797 407.938 142.486 408.534 144.347C408.865 145.312 409.262 146.002 409.857 147.105C410.254 147.863 410.651 148.484 410.982 148.966C411.114 149.104 411.114 149.311 411.114 149.518C411.048 150.276 411.114 150.827 411.114 151.31C411.247 152.206 411.313 152.827 411.776 153.378C412.239 153.861 412.835 153.999 413.1 154.068C414.423 154.343 415.482 153.585 415.746 153.378C415.945 153.171 416.077 153.033 416.276 152.827C416.342 152.758 416.54 152.689 416.673 152.689C417.334 152.758 417.93 152.689 418.459 152.689C419.849 152.62 420.577 152.551 421.106 151.999C421.503 151.586 421.701 151.034 421.768 150.621C422.231 150.138 422.628 149.724 423.091 149.242C423.289 149.035 423.554 148.759 423.753 148.553C423.885 148.484 424.216 148.277 424.414 147.863C424.745 147.174 424.481 146.553 424.414 146.484C424.348 146.347 424.15 145.933 423.753 145.795C423.686 145.795 423.488 145.726 423.091 145.795C422.826 145.864 422.429 145.795 421.768 146.484C421.569 146.691 421.238 147.45 420.444 147.863C419.187 148.484 417.996 147.932 417.798 147.863C417.798 147.863 417.798 147.863 417.731 147.863C417.003 147.105 416.209 146.278 415.482 145.519C415.283 145.312 415.151 144.968 415.151 144.623L415.151 143.106C415.151 140.349 415.151 137.591 415.151 134.834C415.217 134.489 415.415 133.662 415.151 132.766C414.952 132.145 414.688 131.663 414.489 131.387C413.827 130.491 413.166 129.526 412.504 128.63C411.975 128.147 411.114 127.251 410.519 125.872C410.122 124.907 409.923 124.011 409.857 123.39C409.857 123.252 409.923 123.046 409.923 122.908C410.519 121.598 411.181 120.288 411.776 118.978C412.173 118.151 412.703 116.979 413.1 115.531C413.232 115.187 413.563 113.808 413.761 111.395C413.894 110.085 413.96 108.5 413.827 106.501C413.827 105.811 413.695 105.191 413.364 104.57C413.232 104.226 413.033 103.674 413.033 103.123C413.033 102.847 413.033 102.227 413.43 101.468C413.563 101.192 413.827 100.986 414.092 100.848C414.423 100.71 414.754 100.503 415.018 100.365C415.548 100.021 416.209 99.538 417.003 98.9865C418.062 98.1592 418.79 97.6767 419.65 96.9184C420.444 96.229 420.643 95.8843 422.297 94.1609C423.157 93.2647 423.819 92.5753 424.282 92.0927C424.811 91.9549 425.275 91.7481 425.605 91.4034C426.333 90.714 426.267 90.0246 426.929 89.3352C427.26 88.9906 427.723 88.7837 428.252 88.6459C428.384 88.5769 428.715 88.3701 428.914 87.9565C429.046 87.6807 429.046 87.405 429.046 87.1292C429.046 86.7846 428.715 86.5777 428.451 86.5777L428.252 86.5777C427.855 86.7156 427.524 86.9224 427.127 87.0603L426.399 87.8186C426.333 87.8876 426.201 87.9565 426.069 88.0254C425.804 88.0944 425.407 88.1633 424.944 87.9565C424.547 87.7497 424.348 87.405 424.282 87.2671C424.282 87.2671 423.62 86.6467 423.62 85.8884C423.62 85.3369 423.951 84.9232 424.282 84.5096C424.481 84.2339 424.745 84.0271 424.878 83.8892C425.076 83.8202 425.208 83.6824 425.407 83.6134C426.002 83.3377 426.532 82.8551 426.796 82.2347C426.863 82.0968 426.929 81.9589 426.929 81.8211C427.061 81.3385 426.995 81.2006 426.929 81.1317C426.796 80.9938 426.598 81.0627 426.267 81.1317C425.539 81.2696 425.473 81.0627 424.944 81.1317C424.481 81.2006 424.15 81.4764 423.62 81.8211C423.289 82.0968 422.76 82.5104 422.297 83.1998C421.9 83.3377 421.04 83.6134 420.312 84.5786L420.312 84.5786C419.915 85.1301 419.65 85.8884 419.65 86.5777L419.65 88.2322C419.65 88.5769 419.716 88.9216 419.849 89.1974C419.981 89.4731 420.113 89.8178 420.312 90.0936" fill="#321a81" fill-rule="nonzero" opacity="1" stroke="#000000" stroke-linecap="round" stroke-linejoin="miter" stroke-width="0"/>
<path d="M364.201 134.007C363.804 133.869 363.539 133.386 363.539 132.904C363.539 132.697 363.407 132.559 363.341 132.421L363.341 132.421C363.076 132.145 362.481 132.421 362.282 132.697L361.885 133.111C361.687 133.317 361.488 133.386 361.224 133.386L356.989 133.386C356.459 133.455 355.93 133.179 355.665 132.697C355.467 132.352 355.467 132.008 355.533 131.732C355.599 131.318 355.665 130.836 355.665 130.353L355.665 128.078C355.665 127.94 355.732 127.802 355.798 127.664C355.93 127.32 356.129 126.975 356.261 126.63C356.327 126.561 356.393 126.424 356.459 126.424C356.658 126.286 356.856 126.148 356.989 125.803C357.253 125.183 356.989 124.287 356.327 123.735C355.864 123.459 355.732 123.184 355.665 123.046C355.268 122.149 356.393 120.978 356.989 120.288C357.518 119.737 358.047 119.116 358.974 118.909C359.636 118.772 360.099 118.84 360.297 118.909C360.827 119.047 361.224 119.323 361.488 119.461C361.621 119.53 361.753 119.599 361.885 119.668C362.216 119.875 362.613 120.012 362.944 120.219C363.473 120.357 363.936 120.288 364.267 120.219C365.988 119.806 367.245 117.462 367.576 114.36C367.774 114.015 368.039 113.601 368.237 113.325C368.634 113.119 368.833 112.774 368.899 112.636C369.296 111.878 369.031 110.775 368.237 109.879L367.907 109.189C367.708 108.776 367.774 108.293 368.105 108.017C368.37 107.81 368.634 107.466 368.899 107.121C369.098 106.845 369.296 106.432 369.561 105.742C370.156 104.088 370.222 102.571 370.222 102.295C370.289 100.089 369.693 98.5039 369.561 98.1592C368.701 95.8843 366.451 95.126 365.591 93.3336C365.524 93.2647 365.26 92.6442 365.061 92.2306C364.995 92.0927 364.797 92.0238 364.664 92.0927L363.738 92.5753C363.672 92.6442 363.539 92.6442 363.473 92.6442L361.753 92.6442C361.687 92.6442 361.554 92.6442 361.488 92.5753C361.025 92.3685 360.43 92.0927 359.636 91.9549C358.908 91.817 358.378 91.8859 357.65 91.9549C355.599 92.0927 355.599 91.817 354.342 91.9549C353.548 92.0238 351.894 92.2306 350.372 93.3336C349.843 93.6783 350.173 93.6094 348.387 95.4017C347.262 96.5047 346.997 96.7805 346.402 97.4699C345.939 98.0903 345.475 98.6418 345.078 99.538C344.615 100.641 344.483 101.537 344.417 102.295C344.284 103.192 344.284 104.57 344.615 106.156C344.549 106.225 344.549 106.294 344.483 106.363C344.02 106.57 343.755 107.052 343.093 107.052L343.623 107.604C343.689 107.673 343.755 107.742 343.887 107.742L344.417 107.742C344.549 107.81 344.681 107.879 344.814 107.948C345.277 108.707 345.542 109.327 345.74 109.81C346.005 110.43 346.071 110.775 346.402 111.188C346.667 111.602 346.997 111.809 347.064 111.878C347.527 112.291 347.791 113.394 347.064 116.566C346.865 116.772 346.667 116.979 346.468 117.186C345.608 117.393 344.748 117.6 343.954 117.875C343.358 118.013 342.829 118.289 342.366 118.634C341.572 119.185 340.711 119.668 339.785 120.219C339.322 120.495 338.859 120.702 338.395 120.909C338.065 121.046 337.668 121.115 337.337 121.253C336.543 121.322 335.947 121.736 335.352 122.149C335.286 122.218 335.219 122.218 335.153 122.287C334.425 122.701 333.631 122.425 333.168 122.287C332.573 122.081 332.308 121.874 331.845 121.598C331.051 121.184 330.389 121.046 329.198 120.909C327.809 120.702 325.162 120.633 321.721 120.84C320.927 120.909 320.067 121.115 319.339 121.46C318.876 121.667 318.413 121.943 317.949 122.287C316.758 123.046 315.634 123.735 314.641 125.045C312.987 127.182 312.722 129.595 312.656 130.56C312.59 131.594 312.524 133.179 313.318 134.696C313.516 135.041 313.649 135.248 314.641 136.764C315.038 137.316 315.369 137.867 315.634 138.281C315.898 138.626 315.964 139.108 315.964 139.522L315.964 140.211C315.832 140.556 315.634 141.107 315.303 141.59C315.104 141.935 314.641 142.486 313.979 142.969C313.715 143.175 313.251 143.451 312.656 143.658C312.325 143.727 311.73 143.865 310.671 143.658C309.943 143.52 308.752 143.175 307.363 142.279C306.502 141.797 305.576 141.383 304.716 140.9C304.054 140.625 303.194 140.349 302.069 140.211C301.275 140.142 300.613 140.142 300.084 140.211C299.952 140.211 298.893 140.349 298.099 139.522C297.768 139.177 297.57 138.763 297.503 138.488C297.437 138.143 297.239 137.867 296.908 137.66C296.709 137.523 296.445 137.454 296.048 137.454C295.982 137.454 295.188 137.454 294.724 138.143C292.938 140.004 291.217 141.797 289.431 143.658C288.968 144.209 288.835 144.761 288.769 145.037C288.703 145.45 288.769 145.657 288.769 145.726C288.902 146.14 289.232 146.347 289.431 146.415C290.159 146.691 291.019 146.002 291.416 145.726C292.342 145.037 293.732 144.141 295.849 143.038C296.048 143.038 296.246 143.038 296.445 143.038C297.702 143.865 298.694 144.554 299.29 144.968C300.282 145.657 300.613 146.002 301.275 146.347C302.069 146.76 302.797 146.967 303.26 147.036L303.26 150C302.665 150.69 302.268 151.034 301.672 151.724C300.349 151.793 299.621 152.206 299.29 152.551C299.158 152.689 299.091 152.758 298.628 153.24C298.364 153.516 297.967 153.93 297.967 153.93C297.967 153.999 297.834 154.274 297.967 154.619C298.099 154.964 298.364 155.239 298.628 155.308C299.091 155.446 299.687 155.171 299.952 154.619C300.282 154.412 300.68 154.136 301.275 153.93C302.135 153.654 302.863 153.723 303.392 153.792C303.789 153.861 304.186 153.861 304.517 153.792C305.444 153.585 306.304 153.447 307.23 153.24C309.811 153.309 312.325 153.309 314.906 153.309C316.031 153.585 317.222 153.792 318.479 153.93C322.449 154.343 325.89 153.93 328.603 153.378C328.867 153.309 329.198 153.24 329.463 153.24C330.191 153.171 331.382 152.896 332.374 151.862C334.161 150.138 334.425 146.898 332.903 144.072C332.771 143.727 332.705 143.451 332.573 143.106C332.506 142.693 332.374 142.279 332.109 141.935C331.977 141.659 331.779 141.314 331.646 140.832C331.58 140.487 331.58 140.211 331.58 139.935C331.58 139.66 331.779 139.384 331.977 139.246L332.639 138.901C332.837 138.832 333.036 138.763 333.234 138.763L341.505 138.763C341.969 138.763 342.432 138.694 342.895 138.557C343.424 138.419 343.821 138.212 344.152 138.074C344.681 137.867 345.078 137.66 345.475 137.385C346.137 136.902 346.534 136.351 346.799 136.006L346.865 136.006C347.394 136.006 347.924 136.42 347.99 136.971C348.255 138.281 348.453 139.522 348.718 140.832C348.85 141.314 349.049 142.072 349.379 142.9C350.173 144.761 351.166 146.071 352.026 147.036C352.423 147.518 353.019 148.208 353.813 148.897C353.945 149.035 354.077 149.173 354.144 149.38L354.673 150.483C354.739 150.69 354.805 151.31 355.335 151.862C356.129 152.689 357.187 152.551 357.32 152.551L360.827 152.551C361.091 152.551 361.356 152.482 361.621 152.344C361.885 152.206 362.216 151.999 362.679 151.862C362.944 151.793 363.142 151.793 363.341 151.793C363.672 151.793 364.003 151.517 364.003 151.103L364.003 151.103C364.003 150.759 363.804 150.414 363.473 150.276C363.209 150.138 362.944 150 362.679 149.793C362.282 149.449 362.348 149.38 362.018 149.104C361.356 148.553 360.628 148.484 360.033 148.415C359.702 148.346 359.239 148.346 358.709 148.415C358.577 148.346 358.444 148.277 358.312 148.208L356.79 144.968C356.526 144.072 356.195 142.9 356.129 141.521C356.062 140.969 356.062 140.418 356.129 139.866C356.129 139.591 356.327 139.315 356.526 139.177C356.923 138.97 357.452 138.763 358.114 138.694C358.511 138.626 358.841 138.626 359.172 138.694C359.437 138.694 359.636 138.694 359.9 138.626C360.363 138.488 360.893 138.35 361.422 138.074C362.15 137.729 362.679 137.316 363.142 136.971C363.341 136.833 363.539 136.695 363.804 136.695L364.73 136.695L365.524 136.695C365.789 136.695 366.12 136.833 366.319 137.04C366.451 137.178 366.583 137.247 366.716 137.385C367.377 137.798 368.105 137.523 368.701 137.385C369.428 137.178 369.825 136.833 370.024 136.695C370.09 136.626 370.156 136.557 370.222 136.488C370.553 136.144 371.083 136.006 371.546 136.006L372.009 136.006C372.472 136.006 372.869 136.006 373.332 136.006C373.399 135.937 373.928 135.73 373.994 135.317C374.06 134.834 373.663 134.282 372.935 134.007C372.671 133.938 372.472 133.8 372.34 133.593L371.413 132.628C371.347 132.559 371.281 132.49 371.215 132.49C370.884 132.283 370.222 131.87 369.296 131.87C368.37 131.87 367.642 132.352 367.311 132.559C366.848 132.904 366.517 133.248 366.252 133.524C366.054 133.8 365.789 133.938 365.458 133.938" fill="#097bb8" fill-rule="nonzero" opacity="1" stroke="#000000" stroke-linecap="round" stroke-linejoin="miter" stroke-width="0"/>
<path d="M272.426 105.053L268.456 105.053C267.397 105.053 266.338 105.398 265.478 106.087C264.684 106.707 264.088 107.259 263.625 107.81C263.03 108.431 261.64 109.81 260.978 111.257C260.912 111.326 260.648 111.947 260.449 112.291C260.317 112.498 260.118 112.636 259.92 112.636L259.589 112.636C259.258 112.636 258.993 112.981 259.06 113.325L259.523 115.6C259.589 115.876 259.457 116.152 259.192 116.221C258.927 116.29 258.596 116.497 258.266 116.772C257.869 117.186 257.736 117.737 257.604 118.151C257.339 119.185 257.538 120.012 257.604 120.219C257.736 120.633 257.869 121.184 258.266 121.598C258.729 122.081 259.258 122.218 259.589 122.287C260.052 122.425 260.449 122.494 260.912 122.287C261.309 122.081 261.508 121.805 261.574 121.598C261.706 121.598 261.971 121.529 262.236 121.598C263.361 121.736 264.022 122.701 264.221 122.977C265.015 124.08 264.949 125.321 264.882 125.734C264.75 127.182 263.89 128.147 263.559 128.492C263.493 128.561 263.096 128.974 262.236 129.87C261.574 130.491 261.64 130.491 261.574 130.56C261.442 130.698 260.912 131.318 260.251 132.628C259.721 133.662 259.854 133.662 259.589 134.007C259.06 134.765 258.927 134.696 257.604 135.385C257.273 135.523 256.876 135.868 256.281 136.075C255.95 136.213 255.222 136.351 253.634 136.075C253.104 136.006 252.377 135.799 250.987 135.385C249.465 134.972 248.737 134.765 248.34 134.696C248.009 134.627 247.017 134.558 245.694 134.696C244.767 134.834 243.907 134.903 243.047 135.385C241.062 136.42 240.268 138.694 239.738 140.211C239.341 141.314 239.143 142.348 239.077 142.969C238.878 144.209 238.68 145.45 238.481 146.691C238.349 147.312 237.82 147.794 237.224 147.794L236.629 147.794C236.496 147.794 236.364 147.725 236.232 147.656L233.916 145.244C233.188 144.209 232.46 143.175 231.732 142.072L231.732 142.072C231.6 141.176 231.269 140.556 231.07 140.211C230.806 139.729 230.541 139.591 230.409 139.522C230.012 139.315 229.549 139.315 229.085 139.522C228.688 139.729 228.49 140.073 228.424 140.211C227.299 141.383 226.24 142.486 225.115 143.658C224.652 143.865 224.255 144.141 223.792 144.347C223.66 144.416 223.329 144.623 223.13 145.037C222.932 145.45 222.799 146.14 223.13 146.415C223.329 146.553 223.461 146.347 223.792 146.415C224.123 146.553 224.189 146.898 224.454 147.105C224.652 147.243 225.049 147.381 225.777 147.105C225.975 146.898 226.174 146.691 226.372 146.484L226.439 146.415C226.703 146.209 227.166 145.933 227.696 145.795C228.291 145.588 229.085 145.381 229.681 145.795C230.21 146.209 230.343 147.174 230.343 147.174C230.541 147.725 230.673 148.277 230.872 148.828C230.938 149.104 230.872 149.449 230.74 149.656C230.343 150.138 230.012 150.414 229.681 150.621C229.284 150.896 228.953 151.172 228.357 151.31C227.828 151.448 227.299 151.379 227.034 151.31L225.777 151.31C225.314 151.31 224.851 151.103 224.586 150.759L224.454 150.621C223.99 150.138 223.99 150.069 223.792 149.931C223.263 149.656 222.667 149.862 222.469 149.931C221.608 150.276 221.211 151.103 221.145 151.31L221.013 151.448C220.682 151.793 220.219 151.999 219.756 151.999L219.292 151.999C219.226 151.999 218.962 151.862 218.631 151.999C218.168 152.137 217.969 152.62 217.969 152.689C217.969 152.758 217.837 153.033 217.969 153.378C218.101 153.861 218.631 154.757 218.631 154.757C218.631 154.757 218.498 154.412 218.631 154.757C218.763 155.102 219.028 155.377 219.292 155.446C219.425 155.515 219.623 155.515 219.954 155.446C220.483 155.308 220.682 155.102 221.277 154.757C221.873 154.343 222.204 154.136 222.601 154.068C223.13 153.93 223.593 153.999 223.924 154.068C224.255 154.205 224.586 154.274 224.983 154.412C225.645 154.55 226.306 154.619 226.902 154.757C239.606 154.757 240.797 154.757 242.451 154.757C252.774 154.688 254.031 154.964 256.347 154.068C257.538 153.585 259.258 152.758 261.111 151.103C261.442 150.827 261.839 150.552 262.17 150.414C262.368 150.276 262.633 150.138 262.897 150C263.096 149.862 264.022 149.173 264.882 147.932C265.61 146.829 265.544 146.415 266.206 145.864C266.47 145.657 266.934 145.244 267.529 145.175C268.588 145.037 269.316 145.726 269.514 145.864C270.176 146.553 270.838 147.243 271.499 147.932C272.161 148.621 272.823 149.311 273.484 150C273.947 150.483 274.411 150.965 274.874 151.448C275.072 151.793 275.403 152.275 275.602 152.62C275.668 152.896 275.866 153.171 276.131 153.378C276.594 153.861 277.124 153.999 277.454 154.068C277.918 154.136 278.315 154.136 278.778 154.068C279.969 153.861 280.233 153.447 281.425 153.378C281.689 153.378 281.888 153.378 282.086 153.378C283.145 153.516 283.476 154.205 284.071 154.068C284.402 153.999 284.667 153.654 284.733 153.378C284.865 152.827 284.27 152.206 284.071 151.999C283.41 151.31 282.285 151.31 280.101 151.31C279.969 151.31 279.77 151.379 279.439 151.31C278.844 151.241 278.381 150.896 278.116 150.621C275.999 148.139 273.947 145.175 272.161 141.659C272.029 141.452 271.962 141.245 271.83 141.038C271.632 140.556 271.499 140.073 271.499 139.522C271.565 138.419 271.499 137.523 271.499 136.833C271.433 135.454 271.301 134.627 271.499 133.386C271.632 132.835 271.632 132.008 272.161 131.318C272.359 130.973 272.624 130.767 272.823 130.629L273.484 130.284C273.881 130.077 274.344 129.939 274.808 129.939L277.454 129.939C277.984 129.939 278.513 129.664 278.778 129.181C279.109 128.63 279.506 128.078 279.836 127.527C279.969 127.251 280.101 126.975 280.233 126.699C280.432 126.148 280.564 125.596 280.763 125.045C280.961 124.355 281.226 123.666 281.425 122.977L281.755 122.287C281.954 121.874 281.954 121.391 281.689 120.978L280.763 119.53C280.697 119.254 280.63 118.772 280.763 118.151C280.895 117.462 281.226 116.979 281.425 116.772C281.623 116.497 281.888 116.014 282.086 115.394C282.814 112.912 281.226 110.499 280.763 109.879C280.432 109.396 279.903 108.707 279.042 108.017C278.513 107.604 278.182 106.983 278.116 106.294C278.116 105.811 278.116 105.398 278.116 105.053C278.116 104.708 278.182 104.57 278.116 104.364C277.984 103.95 277.388 103.743 276.793 103.674L276.793 104.088C276.793 104.295 276.727 104.501 276.594 104.639C276.462 104.777 276.33 104.915 276.131 105.053C275.403 105.536 274.609 105.398 274.08 105.26C273.55 105.122 273.021 105.053 272.426 105.053Z" fill="#ff81a3" fill-rule="nonzero" opacity="1" stroke="#000000" stroke-linecap="round" stroke-linejoin="miter" stroke-width="0"/>
<path d="M489.656 74.5137L476.621 64.7935C476.357 64.5867 476.026 64.7935 476.026 65.1382L476.026 69.8259C476.026 70.1706 475.695 70.3085 475.43 70.1706C473.974 69.2055 472.585 68.3093 471.129 67.3442C470.931 67.2063 470.666 67.2753 470.534 67.551C469.475 70.5843 468.482 73.6175 467.424 76.6507C467.424 76.7197 467.358 76.7886 467.291 76.8576C465.24 78.581 463.189 80.3044 461.072 82.0279C460.873 82.1657 460.873 82.4415 461.072 82.6483L462.726 84.3717C462.593 84.5786 462.329 84.8543 462.064 85.0611C461.866 85.199 461.402 85.5437 460.741 85.7505C460.344 85.8884 459.55 86.0952 458.756 85.7505C458.16 85.4747 458.094 85.1301 456.771 83.6824C456.572 83.4756 456.374 83.2687 456.241 83.1309C456.175 83.0619 456.109 82.9241 456.109 82.8551L456.109 76.8576C456.109 76.8576 456.109 76.8576 456.109 76.7886C456.109 76.375 455.977 75.5477 455.447 74.7205C455.05 74.0311 454.521 73.6175 454.19 73.4107C454.124 73.3418 454.058 73.3418 454.058 73.2728C453.859 72.9281 453.727 72.5145 453.528 72.1698L453.528 67.6889C453.727 67.3442 453.859 66.9306 454.058 66.5859C454.058 66.5169 454.124 66.448 454.19 66.448C454.521 66.2412 454.918 65.9654 455.447 65.8276C457.168 65.2071 458.69 65.6208 459.417 65.8276L459.947 65.8276C460.013 65.8276 460.145 65.8276 460.211 65.7586C460.41 65.6208 460.608 65.4139 460.807 65.1382C461.402 64.3109 461.469 64.4488 462.13 63.0701C462.13 63.0701 462.13 63.0701 462.13 63.0011C462.196 62.8633 462.395 62.2428 462.461 61.8292C462.527 61.3466 462.792 60.933 463.123 60.5883L463.454 60.2436C463.454 60.2436 464.115 59.4853 464.115 58.8649C464.115 58.4513 464.115 58.3134 464.115 58.1755C463.983 57.4861 463.189 57.4861 462.792 56.7968C462.461 56.2453 462.329 55.3491 462.792 54.7286C462.99 54.4529 463.255 54.315 463.454 54.1771C463.851 54.0393 464.182 53.6256 464.314 53.212C464.446 52.8673 464.579 52.4537 464.645 52.109C464.645 52.0401 464.711 51.9711 464.777 51.9022C465.174 51.5575 465.77 50.8681 466.034 49.903C466.233 49.0758 466.1 48.4553 466.034 47.8349C465.902 46.8698 465.571 46.1804 465.373 45.7668C464.446 43.8365 462.99 42.0441 461.402 40.2518C460.807 39.6313 460.013 38.7351 459.02 37.77C459.02 37.2875 459.02 37.0117 459.02 36.5291C463.652 32.324 468.35 28.1188 472.982 23.8446C473.247 23.5689 473.048 23.0863 472.717 23.1553C461.932 24.2583 451.08 25.3613 440.295 26.4643C440.229 26.4643 440.162 26.5332 440.096 26.6021C431.362 34.5989 422.628 42.5956 413.894 50.5924C413.629 50.8681 413.827 51.2818 414.158 51.2818C417.202 51.0749 420.246 50.8681 423.289 50.6613C423.488 50.6613 423.62 50.7992 423.686 50.9371C423.885 51.7643 424.084 52.5226 424.282 53.3499C425.208 56.7968 426.399 59.83 427.59 62.3807C428.054 63.4837 428.451 64.5867 428.914 65.7586C428.914 65.7586 428.914 65.8276 428.98 65.8276C429.311 66.2412 429.575 66.6548 429.906 67.1374L430.965 69.3434C431.362 70.6532 431.825 71.963 432.222 73.2728C432.222 73.3417 432.222 73.3417 432.222 73.4107L432.222 79.2014C434.538 79.7529 434.207 79.684 436.523 80.2355L436.589 80.0976C437.45 80.3044 437.317 80.3044 438.244 80.5112L438.244 82.1657C438.244 82.3036 438.177 82.3726 438.111 82.4415L436.258 84.3717L436.192 84.4407C435.861 84.6475 435.332 85.1301 434.935 85.8194C434.472 86.5777 434.406 87.1982 434.273 87.8876C434.141 88.8527 433.943 89.6799 434.273 90.6451C434.472 91.3344 434.869 91.817 435.597 92.7132C436.325 93.6094 436.788 94.2298 437.582 94.7813C437.979 95.0571 438.376 95.2639 438.641 95.4017C438.773 95.4707 438.905 95.6086 438.905 95.7464L438.905 98.1592C438.905 98.2282 438.905 98.2971 438.839 98.2971C438.641 98.7107 438.442 99.1244 438.244 99.6069C437.251 101.606 436.126 103.33 435.067 104.777C435.134 105.26 435.134 105.604 435.2 106.087C437.052 107.81 438.905 109.534 440.758 111.257C440.824 111.326 440.89 111.464 440.89 111.533L440.89 120.633C440.89 120.84 441.089 121.046 441.287 121.046L444.066 121.046C444.199 121.046 444.265 121.115 444.331 121.184C444.463 121.391 444.662 121.598 444.86 121.736C445.456 122.287 446.118 122.701 446.647 123.046C446.779 123.115 446.845 123.252 446.845 123.39L446.845 126.424C446.845 126.561 446.779 126.63 446.713 126.699C446.184 127.251 445.39 128.078 444.86 129.319C444.728 129.526 444.463 130.284 444.199 131.387C443.736 133.662 444 135.523 444.199 136.902C444.463 138.488 444.993 140.832 446.25 143.382C445.522 144.692 445.588 144.554 444.86 145.864L444.397 145.864C444.265 145.864 444.133 145.933 444.066 146.071C443.868 146.347 443.736 146.76 443.537 147.243C443.338 147.863 442.809 149.104 442.875 150.69C442.941 152.62 443.736 154.068 444.199 154.826C444.199 154.826 444.199 154.895 444.265 154.895C444.463 155.102 444.596 155.239 444.794 155.446C444.86 155.515 444.927 155.584 445.059 155.584L458.822 155.584C459.285 155.515 460.013 155.446 460.807 154.895C461.469 154.412 461.866 153.93 462.13 153.516C462.395 153.102 462.66 152.758 462.792 152.137C462.792 151.999 462.924 151.448 462.792 150.759C462.66 150.207 462.527 149.587 462.13 149.38C461.799 149.242 461.469 149.38 460.807 149.38C460.476 149.38 460.344 149.311 460.145 149.38C459.881 149.449 459.682 149.656 459.55 149.862C459.484 150 459.351 150.069 459.219 150.069L457.697 150.069C457.168 149.793 456.506 149.449 455.977 149.104C455.58 148.553 455.249 147.932 454.852 147.312C454.852 147.243 454.852 147.243 454.786 147.243C454.587 146.691 454.389 146.071 454.256 145.519C454.19 145.381 454.058 145.244 453.859 145.244L452.139 145.244C452.073 145.244 451.61 145.037 451.477 144.554C451.345 144.278 451.411 144.003 451.477 143.865L451.477 137.178C451.477 137.04 451.543 136.902 451.61 136.764C452.139 135.523 452.139 135.317 452.139 134.834L452.139 130.836C452.139 130.767 452.205 130.629 452.271 130.56L452.734 130.077C452.801 130.008 452.867 129.939 452.867 129.802L452.867 128.63C453.264 127.527 453.859 126.079 454.322 125.045L455.646 123.666C455.844 123.184 456.043 122.701 456.241 122.218L456.241 120.978L458.359 120.978C458.623 120.633 458.69 120.495 458.954 120.15C458.69 119.047 458.425 117.944 458.16 116.91L458.16 116.841L458.16 106.776C458.16 106.639 458.226 106.501 458.293 106.432C458.557 106.225 458.954 106.018 459.484 105.88C460.476 105.536 461.402 105.673 461.932 105.811C462.064 105.811 462.196 105.811 462.263 105.673L462.527 105.398C462.66 105.26 462.66 105.053 462.593 104.846C461.998 104.019 461.469 103.261 460.873 102.502C460.807 102.433 460.807 102.364 460.807 102.295L460.807 95.5396C460.807 95.4017 460.873 94.5745 461.469 94.1609C462.064 93.7472 462.924 93.8162 463.652 94.4366C463.917 94.6434 464.115 94.9192 464.248 95.2639C464.579 95.9532 465.042 96.2979 465.373 96.9873C472.32 96.8494 472.982 97.8146 479.93 97.6767C483.106 90.4382 486.546 82.5104 489.723 75.2031C489.855 74.8584 489.789 74.6516 489.656 74.5137ZM442.941 66.448C442.677 67.0684 442.478 67.7578 442.28 68.5161C441.949 69.757 441.75 70.9289 441.618 71.963C441.353 72.7902 441.155 73.4796 440.956 74.0311C440.89 74.1001 440.692 74.7205 440.295 75.4099C439.898 76.0303 439.765 76.0992 439.633 76.0992C439.236 76.0992 438.971 75.4788 438.971 75.4099C437.648 73.8243 436.325 72.1698 435.001 70.5842C433.678 68.0336 432.355 65.5518 431.031 63.0011C429.906 61.4156 428.848 59.7611 427.723 58.1755C426.863 56.3142 425.936 54.5218 425.076 52.6605C424.878 52.1779 424.613 51.7643 424.414 51.2818L424.414 50.5924C426.863 50.3856 429.245 50.1098 431.693 49.903C431.891 49.9719 432.487 50.0409 433.016 50.5924C433.81 51.4196 433.678 52.5226 433.678 52.6605C433.479 53.1431 433.215 53.5567 433.016 54.0393C433.215 54.5218 433.479 54.9354 433.678 55.418C433.876 55.6248 434.141 55.9006 434.34 56.1074C434.472 56.521 434.737 57.0036 435.001 57.4861C435.398 58.2444 436.655 60.1747 438.971 61.6224C439.435 61.8981 439.898 62.1739 440.295 62.3118C440.758 62.7943 441.155 63.2079 441.618 63.6905C442.081 64.1731 442.478 64.5867 442.941 65.0693L442.941 66.448Z" fill="#2e8e00" fill-rule="nonzero" opacity="1" stroke="#000000" stroke-linecap="round" stroke-linejoin="miter" stroke-width="0"/>
</g>
</g>
</svg>
